<svg xmlns="http://www.w3.org/2000/svg" viewBox="0 0 505.718 843.798"><defs><style>.b{fill:#5c4a21}.c{fill:#019146}.j{fill:#231f20}</style></defs><g style="isolation:isolate"><path class="b" d="M248.554 248.129c-.064-.185-6.657-18.7-24.676-38.534-23.955-26.36-55.843-42.554-94.78-48.133l3.141-21.926c55.569 7.963 89.838 34.857 108.8 56.017 20.705 23.1 28.155 44.483 28.462 45.381l-20.959 7.16 10.48-3.58z"/><path class="b" d="M231.516 483.962a1556.221 1556.221 0 0 1 6.607-157.442C248.934 213.39 271.005 137 303.725 99.456l16.7 14.552c-29.18 33.479-50.007 107.622-60.231 214.411a1533.381 1533.381 0 0 0-6.531 155.112z"/><path class="c" d="M349.782 1.564a2.412 2.412 0 0 0-3.1-1.41 2.441 2.441 0 0 0-.5.255c-83.606 71.132-60.607 106.149-46.949 117.9a20.423 20.423 0 0 0 7.893 4.186 20.186 20.186 0 0 0 6.777.7c18.03-1.262 58.887-15.334 35.878-121.639"/><path d="M349.782 1.553v.011a2.4 2.4 0 0 0-1.18-1.3c-12.118 28.652-1.775 48.575-39.511 103.966a26.081 26.081 0 0 0-1.924 4.424l-.084.186q-.429.962-.853 1.887a3.04 3.04 0 0 1-.1.208q-.445.973-.885 1.9l-.121.253q-.372.786-.739 1.537l-.183.377c-.276.563-.551 1.114-.822 1.648-.035.069-.07.135-.105.2-.234.46-.467.906-.7 1.343l-.218.412c-.258.481-.514.953-.766 1.4l-.011.021v.005c-49.739 88.916-59.373 293.193-59.373 293.193l12.448.53c.916-24.873 2.574-54.436 5.532-85.344 9.373-97.909 27.662-168.368 53.127-205.213.195-.007.391 0 .586-.014 18.034-1.253 58.891-15.325 35.882-121.63z" style="mix-blend-mode:overlay" opacity=".3" fill="#231f20"/><path d="M60.67 478.852s.24-18.72 24.66-27.96 49.5-38.942 61.378-43.56 54.122-14.519 75.9-8.579 33.663 9.9 49.5 5.279 39.6-5.94 52.789-1.979 30.5 4.105 41.581 5.94 58.643 33.563 70.622 46.86 44.882 10.561 44.882 10.561l-93.72 87.12-138.739 26.4-160.908-23.76-38.281-34.332z" fill="#80553d"/><path d="M336.656 556.3l51.607-3.764 93.72-87.12s-32.9 2.736-44.882-10.561c-9.283-10.3-33.379-27.97-51.863-37.922-11.011 55.348-36.845 96.039-48.582 139.367z" style="mix-blend-mode:overlay" opacity=".5" fill="#231f20"/><path d="M484.046 341.826a24.522 24.522 0 0 0-27.188 21.411l-10.6 87.4a19.613 19.613 0 0 1-5.582 11.473L387.7 515.142l-9.753 9.753a12.242 12.242 0 0 1-17.35-17.276l50.175-50.238A24.485 24.485 0 0 0 376.11 422.8l-53.332 53.386L286.62 512.4l-16.981 16.981a58.828 58.828 0 0 0-12.658 18.919 5.245 5.245 0 0 1-9.716.144 64.6 64.6 0 0 0-11.185-19.067L219.1 512.4l-36.16-36.218-53.368-53.394a24.486 24.486 0 0 0-34.66 34.586l50.176 50.238a12.243 12.243 0 0 1-17.351 17.276l-9.73-9.746L65.03 462.1a19.625 19.625 0 0 1-5.582-11.473l-10.6-87.4A24.512 24.512 0 0 0 .166 369l12.418 106.174a58.754 58.754 0 0 0 17.151 35.048l43.434 43.168 70.8 69.862a4.9 4.9 0 0 0 4 1.373l91.756-10.746a113.012 113.012 0 0 1 26.28 0l91.756 10.746a4.912 4.912 0 0 0 4-1.373l70.784-69.862 43.435-43.168a58.755 58.755 0 0 0 17.15-35.048L505.553 369a24.52 24.52 0 0 0-21.5-27.173" fill="#f3cb45"/><path class="c" d="M48.817 843.769a574.987 574.987 0 0 0 55.229-53.238 288.555 288.555 0 0 0 36.428-48.9c10.158-17.989 14.662-33.693 13.433-46.728v-.116l-4.891-41.818a3.766 3.766 0 0 1 3.3-4.174l92.55-10.8a69.162 69.162 0 0 1 16.013 0l92.55 10.8a3.767 3.767 0 0 1 3.3 4.174l-4.891 41.818a3.48 3.48 0 0 1-.078.426c-1.06 12.112 3.5 27.246 13.56 45.033a313.6 313.6 0 0 0 35.708 48.92 630.573 630.573 0 0 0 53.845 54.634H284.086c-16.014-16.712-23.072-28.84-26.165-36.064A26.907 26.907 0 0 1 255 795.974v.051a110.965 110.965 0 0 1-6.231 14.9 149.592 149.592 0 0 1-22.227 32.856zm9.927-704.24a2.414 2.414 0 0 0-.611 3.744c82.9 72.043 114.1 44.045 123.67 28.773a20.422 20.422 0 0 0 2.958-8.436 20.191 20.191 0 0 0-.323-6.81c-3.946-17.647-23.987-55.958-125.694-17.271"/><path d="M0 214.391h505.7V698.1H0z" fill="none"/><g style="mix-blend-mode:overlay" opacity=".5"><path class="j" d="M327.7 621.125l29.883 3.5a4.908 4.908 0 0 0 4-1.373l70.784-69.862 43.433-43.168a58.762 58.762 0 0 0 17.151-35.048L505.373 369a24.519 24.519 0 0 0-21.5-27.173h-.011a24.523 24.523 0 0 0-27.188 21.411l-10.6 87.4a19.613 19.613 0 0 1-5.582 11.473l-52.976 53.036-9.753 9.753a12.23 12.23 0 0 1-20.894-9.126c-9.558 39.004-19.333 73.986-29.169 105.351z"/><path class="j" d="M360.414 507.619l50.176-50.238a24.482 24.482 0 0 0-32.65-36.319c1.943 27.714.49 45.15-19.907 89.964a12.212 12.212 0 0 1 2.381-3.407z"/></g><path d="M454.873 843.8q-17.85-16.034-34.435-33.383-3.315-3.468-6.576-6.985-6.524-7.035-12.833-14.269-2.523-2.835-4.975-5.729t-4.833-5.844a313.544 313.544 0 0 1-25.9-37.347c-8.739-15.443-13.321-28.889-13.68-40.093 0-.085-.012-.174-.014-.259a41.216 41.216 0 0 1 .134-4.683 3.445 3.445 0 0 0 .078-.426L355.1 666.9l1.631-13.94a3.768 3.768 0 0 0-3.3-4.174l-31.422-3.667c-22.814 68.265-45.923 115.027-67 150.9a26.915 26.915 0 0 0 2.914 11.712c3.093 7.224 10.151 19.351 26.165 36.064z" opacity=".5" fill="#231f20"/></g></svg>