<svg xmlns="http://www.w3.org/2000/svg" width="290.89" height="261"><defs><clipPath id="a"><path class="a" d="M148.85 0a2.952 2.952 0 0 0-2.838 3.662l.75 3.031a2.945 2.945 0 0 1-2.856 3.653H2.943A2.945 2.945 0 0 0 0 13.263v.059L.181 31.37a2.945 2.945 0 0 0 2.948 2.916H144.06a2.945 2.945 0 0 1 2.878 3.584l-.822 3.7a2.945 2.945 0 0 0 4.466 3.118l28.625-18.378a4.744 4.744 0 0 0-.06-8.024L150.424.453A2.918 2.918 0 0 0 148.9 0z"/></clipPath><clipPath id="b"><path class="a" d="M91.13 99.552l.523 2.112a2.052 2.052 0 0 1-1.991 2.545L2.05 102.9A2.053 2.053 0 0 0 0 104.939v.036l.126 12.577a2.053 2.053 0 0 0 2.054 2.032l87.59 1.307a2.053 2.053 0 0 1 2.006 2.5l-.573 2.577a2.053 2.053 0 0 0 3.112 2.173l19.949-12.8a3.307 3.307 0 0 0-.042-5.592L94.2 97.316A2.033 2.033 0 0 0 93.125 97a2.058 2.058 0 0 0-1.995 2.552" transform="translate(0 -97)"/></clipPath><style>.a{fill:#00904a}.f{fill:#7b7b7b}.g{fill:#f7f8f9}.h{fill:#30cf88}.i{fill:#f6a90f}.j{fill:#ec7a30}.k{fill:#4d4d4d}</style></defs><g transform="translate(-1591.72 -2199.801)"><circle cx="130.5" cy="130.5" r="130.5" transform="translate(1591.72 2199.801)" fill="#ededed"/><path class="a" transform="translate(1701.22 2292.387)" d="M0 0h182.143v46.104H0z" clip-path="url(#a)"/><path class="a" transform="translate(1714.22 2335.852)" d="M0 0h116.309v32.128H0z" clip-path="url(#b)"/><path d="M1667.76 2245.511h108.921a1.771 1.771 0 0 1 1.771 1.771v166.042a1.771 1.771 0 0 1-1.771 1.771H1667.76a1.771 1.771 0 0 1-1.771-1.771v-166.042a1.771 1.771 0 0 1 1.771-1.771" fill="#484848"/><path class="f" d="M1662.004 2253.923h120.433a2.214 2.214 0 0 1 2.214 2.214v28.78a2.214 2.214 0 0 1-2.214 2.214h-120.433a2.214 2.214 0 0 1-2.214-2.214v-28.78a2.214 2.214 0 0 1 2.214-2.214"/><path class="g" d="M1670.416 2262.336h54.018a2.214 2.214 0 0 1 2.214 2.214v12.4a2.214 2.214 0 0 1-2.214 2.213h-54.018a2.213 2.213 0 0 1-2.214-2.213v-12.4a2.214 2.214 0 0 1 2.214-2.214"/><path class="h" d="M1737.275 2262.336a1.771 1.771 0 1 1-1.772 1.772 1.771 1.771 0 0 1 1.772-1.772"/><path class="i" d="M1737.275 2268.978a1.771 1.771 0 1 1-1.772 1.771 1.771 1.771 0 0 1 1.772-1.771"/><path class="j" d="M1737.275 2275.619a1.771 1.771 0 1 1-1.772 1.771 1.771 1.771 0 0 1 1.772-1.771"/><path class="k" d="M1748.787 2261.008a.886.886 0 0 1 .886.886v16.825a.886.886 0 1 1-1.771 0v-16.828a.886.886 0 0 1 .886-.886m4.426.003a.885.885 0 0 1 .885.886v16.825a.886.886 0 0 1-1.771 0v-16.828a.886.886 0 0 1 .886-.886m4.428.003a.886.886 0 0 1 .886.886v16.825a.886.886 0 0 1-1.771 0v-16.828a.886.886 0 0 1 .886-.886m4.426.003a.885.885 0 0 1 .885.886v16.825a.885.885 0 1 1-1.771 0v-16.828a.886.886 0 0 1 .886-.886m4.429.003a.886.886 0 0 1 .886.886v16.825a.886.886 0 0 1-1.771 0v-16.828a.886.886 0 0 1 .886-.886m4.425.003a.886.886 0 0 1 .886.886v16.825a.886.886 0 0 1-1.771 0v-16.828a.886.886 0 0 1 .886-.886m4.428.003a.886.886 0 0 1 .886.886v16.825a.886.886 0 0 1-1.771 0v-16.828a.886.886 0 0 1 .886-.886"/><path class="f" d="M1673.515 2264.55a1.328 1.328 0 1 1-1.328 1.328 1.328 1.328 0 0 1 1.328-1.328m5.314 0a1.328 1.328 0 1 1-1.328 1.328 1.328 1.328 0 0 1 1.328-1.328m5.313 0a1.328 1.328 0 1 1-1.328 1.328 1.328 1.328 0 0 1 1.328-1.328m5.314 0a1.328 1.328 0 1 1-1.329 1.328 1.328 1.328 0 0 1 1.329-1.328m5.313 0a1.328 1.328 0 1 1-1.328 1.328 1.328 1.328 0 0 1 1.328-1.328m5.313 0a1.328 1.328 0 1 1-1.328 1.328 1.328 1.328 0 0 1 1.328-1.328m5.314 0a1.328 1.328 0 1 1-1.329 1.328 1.328 1.328 0 0 1 1.329-1.328m5.312 0a1.328 1.328 0 1 1-1.328 1.328 1.328 1.328 0 0 1 1.328-1.328m5.313 0a1.328 1.328 0 1 1-1.328 1.328 1.328 1.328 0 0 1 1.328-1.328m5.315 0a1.328 1.328 0 1 1-1.329 1.328 1.328 1.328 0 0 1 1.329-1.328m-47.821 4.871a1.328 1.328 0 1 1-1.328 1.328 1.328 1.328 0 0 1 1.328-1.328m5.314 0a1.328 1.328 0 1 1-1.328 1.328 1.328 1.328 0 0 1 1.328-1.328m5.313 0a1.328 1.328 0 1 1-1.328 1.328 1.328 1.328 0 0 1 1.328-1.328m5.314 0a1.328 1.328 0 1 1-1.329 1.328 1.328 1.328 0 0 1 1.329-1.328m5.313 0a1.328 1.328 0 1 1-1.328 1.328 1.328 1.328 0 0 1 1.328-1.328m5.313 0a1.328 1.328 0 1 1-1.328 1.328 1.328 1.328 0 0 1 1.328-1.328m5.314 0a1.328 1.328 0 1 1-1.329 1.328 1.328 1.328 0 0 1 1.329-1.328m5.312 0a1.328 1.328 0 1 1-1.328 1.328 1.328 1.328 0 0 1 1.328-1.328m5.313 0a1.328 1.328 0 1 1-1.328 1.328 1.328 1.328 0 0 1 1.328-1.328m5.315 0a1.328 1.328 0 1 1-1.329 1.328 1.328 1.328 0 0 1 1.329-1.328m-47.821 4.87a1.329 1.329 0 1 1-1.328 1.328 1.328 1.328 0 0 1 1.328-1.328m5.314 0a1.329 1.329 0 1 1-1.328 1.328 1.328 1.328 0 0 1 1.328-1.328m5.313 0a1.329 1.329 0 1 1-1.328 1.328 1.328 1.328 0 0 1 1.328-1.328m5.314 0a1.329 1.329 0 1 1-1.329 1.328 1.328 1.328 0 0 1 1.329-1.328m5.313 0a1.329 1.329 0 1 1-1.328 1.328 1.328 1.328 0 0 1 1.328-1.328m5.313 0a1.329 1.329 0 1 1-1.328 1.328 1.328 1.328 0 0 1 1.328-1.328m5.314 0a1.329 1.329 0 1 1-1.329 1.328 1.328 1.328 0 0 1 1.329-1.328m5.312 0a1.329 1.329 0 1 1-1.328 1.328 1.328 1.328 0 0 1 1.328-1.328m5.313 0a1.329 1.329 0 1 1-1.328 1.328 1.328 1.328 0 0 1 1.328-1.328m5.315 0a1.329 1.329 0 1 1-1.329 1.328 1.328 1.328 0 0 1 1.329-1.328m-59.332 19.482h120.433a2.214 2.214 0 0 1 2.214 2.214v28.78a2.214 2.214 0 0 1-2.214 2.214h-120.433a2.214 2.214 0 0 1-2.214-2.214v-28.78a2.214 2.214 0 0 1 2.214-2.214"/><path class="g" d="M1670.416 2302.185h54.018a2.214 2.214 0 0 1 2.214 2.214v12.4a2.214 2.214 0 0 1-2.214 2.214h-54.018a2.214 2.214 0 0 1-2.214-2.214v-12.4a2.214 2.214 0 0 1 2.214-2.214"/><path class="h" d="M1737.275 2302.185a1.771 1.771 0 1 1-1.772 1.772 1.771 1.771 0 0 1 1.772-1.772"/><path class="i" d="M1737.275 2308.827a1.771 1.771 0 1 1-1.772 1.771 1.771 1.771 0 0 1 1.772-1.771"/><path class="j" d="M1737.275 2315.469a1.771 1.771 0 1 1-1.772 1.771 1.771 1.771 0 0 1 1.772-1.771"/><path class="k" d="M1748.787 2300.857a.886.886 0 0 1 .886.886v16.825a.886.886 0 0 1-1.771 0v-16.825a.886.886 0 0 1 .886-.886m4.426 0a.885.885 0 0 1 .885.886v16.825a.886.886 0 0 1-1.771 0v-16.825a.886.886 0 0 1 .886-.886m4.428 0a.886.886 0 0 1 .886.886v16.825a.886.886 0 0 1-1.771 0v-16.825a.886.886 0 0 1 .886-.886m4.426 0a.885.885 0 0 1 .885.886v16.825a.885.885 0 1 1-1.771 0v-16.825a.885.885 0 0 1 .886-.886m4.429 0a.886.886 0 0 1 .886.886v16.825a.886.886 0 0 1-1.771 0v-16.825a.886.886 0 0 1 .886-.886m4.425 0a.886.886 0 0 1 .886.886v16.825a.886.886 0 0 1-1.771 0v-16.825a.886.886 0 0 1 .886-.886m4.428 0a.886.886 0 0 1 .886.886v16.825a.886.886 0 0 1-1.771 0v-16.825a.886.886 0 0 1 .886-.886"/><path class="f" d="M1673.515 2304.399a1.328 1.328 0 1 1-1.328 1.328 1.328 1.328 0 0 1 1.328-1.328m5.314 0a1.328 1.328 0 1 1-1.328 1.328 1.328 1.328 0 0 1 1.328-1.328m5.313 0a1.328 1.328 0 1 1-1.328 1.328 1.328 1.328 0 0 1 1.328-1.328m5.314 0a1.328 1.328 0 1 1-1.329 1.328 1.328 1.328 0 0 1 1.329-1.328m5.313 0a1.328 1.328 0 1 1-1.328 1.328 1.328 1.328 0 0 1 1.328-1.328m5.313 0a1.328 1.328 0 1 1-1.328 1.328 1.328 1.328 0 0 1 1.328-1.328m5.314 0a1.328 1.328 0 1 1-1.329 1.328 1.328 1.328 0 0 1 1.329-1.328m5.312 0a1.328 1.328 0 1 1-1.328 1.328 1.328 1.328 0 0 1 1.328-1.328m5.313 0a1.328 1.328 0 1 1-1.328 1.328 1.328 1.328 0 0 1 1.328-1.328m5.315 0a1.328 1.328 0 1 1-1.329 1.328 1.328 1.328 0 0 1 1.329-1.328m-47.821 4.871a1.328 1.328 0 1 1-1.328 1.328 1.328 1.328 0 0 1 1.328-1.328m5.314 0a1.328 1.328 0 1 1-1.328 1.328 1.328 1.328 0 0 1 1.328-1.328m5.313 0a1.328 1.328 0 1 1-1.328 1.328 1.328 1.328 0 0 1 1.328-1.328m5.314 0a1.328 1.328 0 1 1-1.329 1.328 1.328 1.328 0 0 1 1.329-1.328m5.313 0a1.328 1.328 0 1 1-1.328 1.328 1.328 1.328 0 0 1 1.328-1.328m5.313 0a1.328 1.328 0 1 1-1.328 1.328 1.328 1.328 0 0 1 1.328-1.328m5.314 0a1.328 1.328 0 1 1-1.329 1.328 1.328 1.328 0 0 1 1.329-1.328m5.312 0a1.328 1.328 0 1 1-1.328 1.328 1.328 1.328 0 0 1 1.328-1.328m5.313 0a1.328 1.328 0 1 1-1.328 1.328 1.328 1.328 0 0 1 1.328-1.328m5.315 0a1.328 1.328 0 1 1-1.329 1.328 1.328 1.328 0 0 1 1.329-1.328m-47.821 4.87a1.328 1.328 0 1 1-1.328 1.328 1.328 1.328 0 0 1 1.328-1.328m5.314 0a1.328 1.328 0 1 1-1.328 1.328 1.328 1.328 0 0 1 1.328-1.328m5.313 0a1.328 1.328 0 1 1-1.328 1.328 1.328 1.328 0 0 1 1.328-1.328m5.314 0a1.328 1.328 0 1 1-1.329 1.328 1.328 1.328 0 0 1 1.329-1.328m5.313 0a1.328 1.328 0 1 1-1.328 1.328 1.328 1.328 0 0 1 1.328-1.328m5.313 0a1.328 1.328 0 1 1-1.328 1.328 1.328 1.328 0 0 1 1.328-1.328m5.314 0a1.328 1.328 0 1 1-1.329 1.328 1.328 1.328 0 0 1 1.329-1.328m5.312 0a1.328 1.328 0 1 1-1.328 1.328 1.328 1.328 0 0 1 1.328-1.328m5.313 0a1.328 1.328 0 1 1-1.328 1.328 1.328 1.328 0 0 1 1.328-1.328m5.315 0a1.328 1.328 0 1 1-1.329 1.328 1.328 1.328 0 0 1 1.329-1.328m-59.332 19.482h120.433a2.214 2.214 0 0 1 2.214 2.214v28.78a2.214 2.214 0 0 1-2.214 2.214h-120.433a2.214 2.214 0 0 1-2.214-2.214v-28.78a2.214 2.214 0 0 1 2.214-2.214"/><path class="g" d="M1670.416 2342.035h54.018a2.214 2.214 0 0 1 2.214 2.214v12.4a2.214 2.214 0 0 1-2.214 2.214h-54.018a2.214 2.214 0 0 1-2.214-2.214v-12.4a2.214 2.214 0 0 1 2.214-2.214"/><path class="h" d="M1737.275 2342.035a1.771 1.771 0 1 1-1.772 1.771 1.771 1.771 0 0 1 1.772-1.771"/><path class="i" d="M1737.275 2348.676a1.771 1.771 0 1 1-1.772 1.771 1.771 1.771 0 0 1 1.772-1.771"/><path class="j" d="M1737.275 2355.318a1.771 1.771 0 1 1-1.772 1.771 1.771 1.771 0 0 1 1.772-1.771"/><path class="k" d="M1748.787 2340.706a.886.886 0 0 1 .886.886v16.825a.886.886 0 0 1-1.771 0v-16.828a.886.886 0 0 1 .886-.886m4.426.003a.885.885 0 0 1 .885.886v16.825a.886.886 0 0 1-1.771 0v-16.828a.886.886 0 0 1 .886-.886m4.428.003a.886.886 0 0 1 .886.886v16.825a.886.886 0 0 1-1.771 0v-16.828a.886.886 0 0 1 .886-.886m4.426.003a.885.885 0 0 1 .885.886v16.825a.885.885 0 1 1-1.771 0v-16.828a.886.886 0 0 1 .886-.886m4.429.003a.886.886 0 0 1 .886.886v16.825a.886.886 0 0 1-1.771 0v-16.828a.886.886 0 0 1 .886-.886m4.425.003a.886.886 0 0 1 .886.886v16.825a.886.886 0 0 1-1.771 0v-16.828a.886.886 0 0 1 .886-.886m4.428.003a.886.886 0 0 1 .886.886v16.825a.886.886 0 0 1-1.771 0v-16.828a.886.886 0 0 1 .886-.886"/><path class="f" d="M1673.515 2344.249a1.328 1.328 0 1 1-1.328 1.328 1.328 1.328 0 0 1 1.328-1.328m5.314 0a1.328 1.328 0 1 1-1.328 1.328 1.328 1.328 0 0 1 1.328-1.328m5.313 0a1.328 1.328 0 1 1-1.328 1.328 1.328 1.328 0 0 1 1.328-1.328m5.314 0a1.328 1.328 0 1 1-1.329 1.328 1.328 1.328 0 0 1 1.329-1.328m5.313 0a1.328 1.328 0 1 1-1.328 1.328 1.328 1.328 0 0 1 1.328-1.328m5.313 0a1.328 1.328 0 1 1-1.328 1.328 1.328 1.328 0 0 1 1.328-1.328m5.314 0a1.328 1.328 0 1 1-1.329 1.328 1.328 1.328 0 0 1 1.329-1.328m5.312 0a1.328 1.328 0 1 1-1.328 1.328 1.328 1.328 0 0 1 1.328-1.328m5.313 0a1.328 1.328 0 1 1-1.328 1.328 1.328 1.328 0 0 1 1.328-1.328m5.315 0a1.328 1.328 0 1 1-1.329 1.328 1.328 1.328 0 0 1 1.329-1.328m-47.821 4.87a1.328 1.328 0 1 1-1.328 1.328 1.328 1.328 0 0 1 1.328-1.328m5.314 0a1.328 1.328 0 1 1-1.328 1.328 1.328 1.328 0 0 1 1.328-1.328m5.313 0a1.328 1.328 0 1 1-1.328 1.328 1.328 1.328 0 0 1 1.328-1.328m5.314 0a1.328 1.328 0 1 1-1.329 1.328 1.328 1.328 0 0 1 1.329-1.328m5.313 0a1.328 1.328 0 1 1-1.328 1.328 1.328 1.328 0 0 1 1.328-1.328m5.313 0a1.328 1.328 0 1 1-1.328 1.328 1.328 1.328 0 0 1 1.328-1.328m5.314 0a1.328 1.328 0 1 1-1.329 1.328 1.328 1.328 0 0 1 1.329-1.328m5.312 0a1.328 1.328 0 1 1-1.328 1.328 1.328 1.328 0 0 1 1.328-1.328m5.313 0a1.328 1.328 0 1 1-1.328 1.328 1.328 1.328 0 0 1 1.328-1.328m5.315 0a1.328 1.328 0 1 1-1.329 1.328 1.328 1.328 0 0 1 1.329-1.328m-47.821 4.87a1.328 1.328 0 1 1-1.328 1.328 1.328 1.328 0 0 1 1.328-1.328m5.314 0a1.328 1.328 0 1 1-1.328 1.328 1.328 1.328 0 0 1 1.328-1.328m5.313 0a1.328 1.328 0 1 1-1.328 1.328 1.328 1.328 0 0 1 1.328-1.328m5.314 0a1.328 1.328 0 1 1-1.329 1.328 1.328 1.328 0 0 1 1.329-1.328m5.313 0a1.328 1.328 0 1 1-1.328 1.328 1.328 1.328 0 0 1 1.328-1.328m5.313 0a1.328 1.328 0 1 1-1.328 1.328 1.328 1.328 0 0 1 1.328-1.328m5.314 0a1.328 1.328 0 1 1-1.329 1.328 1.328 1.328 0 0 1 1.329-1.328m5.312 0a1.328 1.328 0 1 1-1.328 1.328 1.328 1.328 0 0 1 1.328-1.328m5.313 0a1.328 1.328 0 1 1-1.328 1.328 1.328 1.328 0 0 1 1.328-1.328m5.315 0a1.328 1.328 0 1 1-1.329 1.328 1.328 1.328 0 0 1 1.329-1.328"/><path class="g" d="M1692.925 2381.264a1.484 1.484 0 0 1 .4 2.941 7.365 7.365 0 0 0 0 14.208 1.479 1.479 0 1 1-.792 2.826 10.331 10.331 0 0 1 0-19.919 1.474 1.474 0 0 1 .392-.056zm4.734-.001a1.464 1.464 0 0 1 .4.055 10.331 10.331 0 0 1 0 19.919 1.482 1.482 0 1 1-.828-2.846l.031-.009a7.365 7.365 0 0 0 0-14.208 1.479 1.479 0 0 1 .393-2.91zm19.912.621h40.734a1.55 1.55 0 1 1 0 3.1h-40.734a1.55 1.55 0 1 1 0-3.1m0 7.084h40.734a1.55 1.55 0 1 1 0 3.1h-40.734a1.55 1.55 0 1 1 0-3.1m0 7.087h40.734a1.55 1.55 0 1 1 0 3.1h-40.734a1.55 1.55 0 1 1 0-3.1"/></g></svg>