<svg xmlns="http://www.w3.org/2000/svg" width="230.975" height="224.765"><defs><clipPath id="a"><path data-name="Path 11953" d="M-937.178-254.661a82.683 82.683 0 0 1-57.553-101.789A82.683 82.683 0 0 1-937.178-414a16.607 16.607 0 0 0 12.462-19.909 16.608 16.608 0 0 0-19.909-12.461q-.7.159-1.378.379a115.871 115.871 0 0 0-80.765 142.58A115.87 115.87 0 0 0-946-222.649a16.737 16.737 0 0 0 4.444.6A16.608 16.608 0 0 0-925-238.706a16.607 16.607 0 0 0-12.178-15.955z" transform="translate(1030.996 446.8)" fill="none"/></clipPath><clipPath id="b"><path data-name="Path 11968" d="M-896.6-254.658a82.674 82.674 0 0 0 57.593-101.752A82.675 82.675 0 0 0-896.6-414a16.608 16.608 0 0 1-10.855-20.828 16.609 16.609 0 0 1 19.721-11.163 115.871 115.871 0 0 1 80.766 142.58 115.869 115.869 0 0 1-80.766 80.765 16.777 16.777 0 0 1-4.443.6 16.608 16.608 0 0 1-16.635-16.582 16.607 16.607 0 0 1 12.212-16.041z" transform="translate(908.81 446.454)" fill="none"/></clipPath></defs><g data-name="Group 2807"><g data-name="Group 2803"><g data-name="Group 2802" clip-path="url(#a)" transform="translate(0 .001)"><g data-name="Group 2801"><g data-name="Group 2799"><g data-name="Group 2797" fill="#a01c27"><path data-name="Path 11889" d="M-58.719-3.782H383.39v17.9H-58.719z"/><path data-name="Path 11890" d="M-58.719 211.004H383.39v17.9H-58.719z"/><path data-name="Path 11891" d="M-58.719 175.207H383.39v17.9H-58.719z"/><path data-name="Path 11892" d="M-58.719 139.408H383.39v17.9H-58.719z"/><path data-name="Path 11893" d="M-58.719 103.609H383.39v17.9H-58.719z"/><path data-name="Path 11894" d="M-58.719 67.81H383.39v17.9H-58.719z"/><path data-name="Path 11895" d="M-58.719 32.014H383.39v17.9H-58.719z"/></g><g data-name="Group 2798" fill="#fff"><path data-name="Path 11896" d="M-58.719 193.102H383.39v17.9H-58.719z"/><path data-name="Path 11897" d="M-58.719 157.307H383.39v17.9H-58.719z"/><path data-name="Path 11898" d="M-58.719 121.508H383.39v17.9H-58.719z"/><path data-name="Path 11899" d="M-58.719 85.709H383.39v17.9H-58.719z"/><path data-name="Path 11900" d="M-58.719 49.913H383.39v17.9H-58.719z"/><path data-name="Path 11901" d="M-58.719 14.114H383.39v17.9H-58.719z"/></g></g><path data-name="Path 11902" d="M-58.719-3.782h176.838v125.29H-58.723z" fill="#243563"/><g data-name="Group 2800" fill="#fff"><path data-name="Path 11903" d="M-43.983 1.578l-1.609 4.951h-5.209l4.214 3.068-1.609 4.954 4.212-3.068 4.214 3.068-1.609-4.954 4.214-3.068h-5.209z"/><path data-name="Path 11904" d="M-14.509 1.578l-1.61 4.951h-5.206l4.211 3.068-1.609 4.954 4.212-3.068 4.212 3.068-1.61-4.954 4.212-3.068h-5.207z"/><path data-name="Path 11905" d="M14.968 1.578l-1.61 4.951H8.149l4.214 3.068-1.609 4.954 4.215-3.068 4.211 3.068-1.609-4.954 4.212-3.068H16.59z"/><path data-name="Path 11906" d="M44.436 1.578l-1.607 4.951h-5.207l4.212 3.068-1.609 4.954 4.214-3.068 4.215 3.068-1.61-4.954 4.212-3.068h-5.207z"/><path data-name="Path 11907" d="M73.913 1.578l-1.61 4.951h-5.206l4.214 3.068-1.609 4.954 4.214-3.068 4.212 3.068-1.609-4.954 4.214-3.068h-5.207z"/><path data-name="Path 11908" d="M99.171 14.544l4.215-3.068 4.214 3.068-1.609-4.953 4.215-3.068h-5.2l-1.609-4.951-1.61 4.951h-5.206l4.211 3.068z"/><path data-name="Path 11909" d="M-43.983 26.637l-1.609 4.953h-5.209l4.214 3.068-1.609 4.954 4.212-3.068 4.214 3.068-1.609-4.954 4.214-3.068h-5.209z"/><path data-name="Path 11910" d="M-14.509 26.637l-1.61 4.953h-5.206l4.211 3.068-1.609 4.954 4.212-3.068 4.212 3.068-1.61-4.954 4.212-3.068h-5.207z"/><path data-name="Path 11911" d="M14.968 26.637l-1.61 4.953H8.149l4.214 3.068-1.609 4.954 4.215-3.068 4.211 3.068-1.609-4.954 4.212-3.068H16.59z"/><path data-name="Path 11912" d="M44.436 26.637l-1.607 4.953h-5.207l4.212 3.068-1.609 4.954 4.214-3.068 4.215 3.068-1.61-4.954 4.212-3.068h-5.207z"/><path data-name="Path 11913" d="M73.913 26.637l-1.61 4.953h-5.206l4.214 3.068-1.609 4.954 4.214-3.068 4.212 3.068-1.609-4.954 4.214-3.068h-5.207z"/><path data-name="Path 11914" d="M103.386 26.637l-1.609 4.953H96.57l4.212 3.068-1.61 4.954 4.215-3.068 4.214 3.068-1.609-4.954 4.214-3.068h-5.195z"/><path data-name="Path 11915" d="M-43.983 51.696l-1.609 4.954h-5.209l4.214 3.068-1.609 4.951 4.212-3.069 4.214 3.069-1.609-4.954 4.214-3.068h-5.209z"/><path data-name="Path 11916" d="M-14.509 51.696l-1.61 4.954h-5.206l4.211 3.068-1.609 4.951 4.212-3.069 4.212 3.069-1.61-4.954 4.212-3.068h-5.207z"/><path data-name="Path 11917" d="M14.968 51.696l-1.61 4.954H8.149l4.214 3.068-1.609 4.951 4.215-3.069 4.211 3.069-1.609-4.954 4.212-3.068H16.59z"/><path data-name="Path 11918" d="M44.436 51.696l-1.607 4.954h-5.207l4.212 3.068-1.609 4.951 4.214-3.069 4.215 3.069-1.61-4.954 4.212-3.068h-5.207z"/><path data-name="Path 11919" d="M73.913 51.696l-1.61 4.954h-5.206l4.214 3.068-1.609 4.951 4.214-3.069 4.212 3.069-1.609-4.954 4.214-3.068h-5.207z"/><path data-name="Path 11920" d="M103.386 51.696l-1.609 4.954H96.57l4.212 3.068-1.61 4.951 4.215-3.069 4.214 3.069-1.609-4.954 4.214-3.068h-5.195z"/><path data-name="Path 11921" d="M-43.983 76.755l-1.609 4.953h-5.209l4.214 3.068-1.609 4.951 4.212-3.068 4.214 3.068-1.609-4.951 4.214-3.068h-5.209z"/><path data-name="Path 11922" d="M-14.509 76.755l-1.61 4.953h-5.206l4.211 3.068-1.609 4.951 4.212-3.068 4.212 3.068-1.61-4.951 4.212-3.068h-5.207z"/><path data-name="Path 11923" d="M14.968 76.755l-1.61 4.953H8.149l4.214 3.068-1.609 4.951 4.215-3.068 4.211 3.068-1.609-4.951 4.212-3.068H16.59z"/><path data-name="Path 11924" d="M44.436 76.755l-1.607 4.953h-5.207l4.212 3.068-1.609 4.951 4.214-3.068 4.215 3.068-1.61-4.951 4.212-3.068h-5.207z"/><path data-name="Path 11925" d="M73.913 76.755l-1.61 4.953h-5.206l4.214 3.068-1.609 4.951 4.214-3.068 4.212 3.068-1.609-4.951 4.214-3.068h-5.207z"/><path data-name="Path 11926" d="M103.386 76.755l-1.609 4.953H96.57l4.212 3.068-1.61 4.951 4.215-3.068 4.214 3.068-1.609-4.951 4.214-3.068h-5.195z"/><path data-name="Path 11927" d="M-42.374 106.767l-1.609-4.954-1.609 4.954h-5.209l4.214 3.068-1.609 4.953 4.212-3.068 4.214 3.068-1.609-4.953 4.214-3.068z"/><path data-name="Path 11928" d="M-12.9 106.767l-1.609-4.954-1.61 4.954h-5.206l4.211 3.068-1.609 4.953 4.212-3.068 4.212 3.068-1.61-4.953 4.212-3.068z"/><path data-name="Path 11929" d="M16.588 106.767l-1.609-4.954-1.61 4.954H8.16l4.214 3.068-1.609 4.953 4.215-3.068 4.211 3.068-1.609-4.953 4.212-3.068z"/><path data-name="Path 11930" d="M46.047 106.767l-1.609-4.954-1.606 4.954h-5.207l4.212 3.068-1.609 4.953 4.214-3.068 4.214 3.068-1.609-4.953 4.212-3.068z"/><path data-name="Path 11931" d="M75.524 106.767l-1.609-4.954-1.609 4.954h-5.207l4.215 3.068-1.609 4.953 4.214-3.068 4.212 3.068-1.61-4.953 4.215-3.068z"/><path data-name="Path 11932" d="M105.009 106.767l-1.611-4.951-1.61 4.954h-5.206l4.211 3.068-1.609 4.953 4.215-3.068 4.214 3.068-1.609-4.953 4.214-3.068z"/><path data-name="Path 11933" d="M-29.243 14.108l-1.609 4.953h-5.207l4.212 3.068-1.609 4.953 4.211-3.068 4.212 3.068-1.609-4.953 4.214-3.068h-5.193z"/><path data-name="Path 11934" d="M.228 14.108l-1.609 4.953h-5.207l4.212 3.068-1.61 4.953 4.212-3.068 4.214 3.068-1.609-4.953 4.215-3.068H1.839z"/><path data-name="Path 11935" d="M29.704 14.108l-1.609 4.953h-5.207l4.214 3.068-1.609 4.953 4.215-3.068 4.211 3.068-1.609-4.953 4.212-3.068h-5.207z"/><path data-name="Path 11936" d="M59.178 14.108l-1.609 4.953h-5.207l4.215 3.068-1.61 4.953 4.212-3.068 4.215 3.068-1.61-4.953 4.215-3.068h-5.2z"/><path data-name="Path 11937" d="M88.651 14.108l-1.609 4.953h-5.206l4.214 3.068-1.609 4.953 4.211-3.068 4.212 3.068-1.609-4.953 4.212-3.068H90.26z"/><path data-name="Path 11938" d="M-29.243 39.165l-1.609 4.954h-5.207l4.212 3.068-1.609 4.953 4.211-3.068 4.212 3.068-1.609-4.953 4.214-3.068h-5.193z"/><path data-name="Path 11939" d="M.228 39.165l-1.609 4.954h-5.207l4.212 3.068-1.61 4.953 4.212-3.068L4.44 52.14l-1.609-4.953 4.215-3.068H1.839z"/><path data-name="Path 11940" d="M29.704 39.165l-1.609 4.954h-5.207l4.214 3.068-1.609 4.953 4.215-3.068 4.211 3.068-1.609-4.953 4.212-3.068h-5.207z"/><path data-name="Path 11941" d="M59.178 39.165l-1.609 4.954h-5.207l4.215 3.068-1.61 4.953 4.212-3.068 4.215 3.068-1.61-4.953 4.215-3.068h-5.2z"/><path data-name="Path 11942" d="M88.651 39.165l-1.609 4.954h-5.206l4.214 3.068-1.609 4.953 4.211-3.068 4.212 3.068-1.609-4.953 4.212-3.068H90.26z"/><path data-name="Path 11943" d="M-29.243 64.227l-1.609 4.953h-5.207l4.212 3.068-1.609 4.953 4.211-3.068 4.212 3.068-1.609-4.953 4.214-3.068h-5.193z"/><path data-name="Path 11944" d="M.228 64.227l-1.609 4.953h-5.207l4.212 3.068-1.61 4.953 4.212-3.068 4.214 3.068-1.609-4.953 4.215-3.068H1.839z"/><path data-name="Path 11945" d="M29.704 64.227l-1.609 4.953h-5.207l4.214 3.068-1.608 4.95 4.215-3.068 4.211 3.068-1.609-4.953 4.212-3.068h-5.207z"/><path data-name="Path 11946" d="M59.178 64.227l-1.609 4.953h-5.207l4.215 3.068-1.61 4.953 4.212-3.068 4.215 3.068-1.61-4.953 4.215-3.068h-5.2z"/><path data-name="Path 11947" d="M88.651 64.227l-1.609 4.953h-5.206l4.214 3.068-1.609 4.95 4.211-3.068 4.212 3.068-1.609-4.953 4.212-3.068H90.26z"/><path data-name="Path 11948" d="M-27.623 94.239l-1.609-4.953-1.609 4.953h-5.207l4.212 3.068-1.609 4.951 4.211-3.068 4.212 3.068-1.609-4.951 4.214-3.068z"/><path data-name="Path 11949" d="M1.84 94.239L.23 89.286l-1.609 4.953h-5.206l4.211 3.068-1.609 4.951L.229 99.19l4.214 3.068-1.609-4.951 4.214-3.068z"/><path data-name="Path 11950" d="M31.313 94.239l-1.609-4.953-1.609 4.953h-5.207l4.214 3.068-1.609 4.951 4.215-3.068 4.211 3.068-1.609-4.951 4.212-3.068z"/><path data-name="Path 11951" d="M60.801 94.239l-1.609-4.953-1.609 4.953h-5.207l4.214 3.068-1.609 4.951 4.212-3.068 4.214 3.068-1.609-4.951 4.214-3.068z"/><path data-name="Path 11952" d="M90.261 94.239l-1.61-4.953-1.609 4.953h-5.206l4.214 3.068-1.609 4.951 4.211-3.068 4.212 3.068-1.609-4.951 4.212-3.068z"/></g></g></g></g><g data-name="Group 2806"><g data-name="Group 2805" clip-path="url(#b)" transform="translate(124.904 .355)"><g data-name="Group 2804"><path data-name="Path 11954" d="M131.81 103.343A116.739 116.739 0 0 1 20.385 225.165a116.738 116.738 0 0 1-121.716-109.43 78.6 78.6 0 0 1 0-12.392A116.73 116.73 0 0 1 21.3-7.173a116.731 116.731 0 0 1 110.516 110.516z" fill="#fff"/><path data-name="Path 11955" d="M-77.526 38.03a117.866 117.866 0 0 0-20.218 40.442h60.65z" fill="#1b85b7"/><path data-name="Path 11956" d="M127.577 78.472a112.366 112.366 0 0 0-20.216-40.442L66.927 78.472z" fill="#26305f"/><path data-name="Path 11957" d="M-97.418 139.448A112.38 112.38 0 0 0-77.2 179.874l40.432-40.426z" fill="#1b85b7"/><path data-name="Path 11958" d="M86.164 16.507A117.874 117.874 0 0 0 45.73-3.708v60.649z" fill="#26305f"/><path data-name="Path 11959" d="M-56.009 201.723a113.8 113.8 0 0 0 40.76 20.216v-60.65z" fill="#1b85b7"/><path data-name="Path 11960" d="M-15.246-3.708a113.793 113.793 0 0 0-40.76 20.215l40.76 40.434z" fill="#1b85b7"/><path data-name="Path 11961" d="M45.404 221.614a112.374 112.374 0 0 0 40.434-20.218l-40.434-40.434z" fill="#26305f"/><path data-name="Path 11962" d="M66.927 139.448l40.434 40.426a117.877 117.877 0 0 0 20.216-40.426z" fill="#26305f"/><path data-name="Path 11963" d="M130.837 93.788H30.406V-6.642a117.993 117.993 0 0 0-30.325 0v100.43h-100.76a117.977 117.977 0 0 0 0 30.324H-.251v100.446a117.991 117.991 0 0 0 30.325 0V124.13h100.424a105.011 105.011 0 0 0 .339-30.342z" fill="#af1b2f"/><path data-name="Path 11964" d="M45.404 139.448l52.173 52.165 6.848-7.5-44.673-44.662z" fill="#af1b2f"/><path data-name="Path 11965" d="M-15.246 139.448l-52.173 52.165 7.5 6.848 44.673-44.673z" fill="#c81530"/><path data-name="Path 11966" d="M-15.246 78.464l-52.173-52.173-6.848 7.5 44.673 44.673z" fill="#c81530"/><path data-name="Path 11967" d="M45.404 78.464l52.173-52.179-7.5-6.843-44.673 44.674z" fill="#af1b2f"/></g></g></g></g></svg>