<svg data-name="Layer 1" xmlns="http://www.w3.org/2000/svg" width="428" height="428"><defs><linearGradient id="a" x1="171.525" y1="220.394" x2="171.525" y2="149.236" gradientTransform="matrix(1 0 0 -1 0 430)" gradientUnits="userSpaceOnUse"><stop offset="0" stop-color="#f26a27"/><stop offset="1" stop-color="#fccb00"/></linearGradient></defs><circle cx="214" cy="214" r="214" fill="#fff"/><path d="M278.4 144.477h-91.981a7.928 7.928 0 0 0-7.139 8.448 7.688 7.688 0 0 0 7.139 7.149h15.927a7.7 7.7 0 0 1 7.469 7.919v.19a8 8 0 0 1-7.469 7.478h94.874v-12.667a18.787 18.787 0 0 0-18.82-18.517zm-27 22.736a7.149 7.149 0 1 1 7.148-7.149 7.208 7.208 0 0 1-7.118 7.149zm21.776 0a7.149 7.149 0 1 1 7.149-7.149 7.22 7.22 0 0 1-7.159 7.149z" fill="#a09f9f"/><path d="M138 175.661a7.8 7.8 0 0 0 0 15.6h66.289a53.376 53.376 0 0 1 7.468.64 51.441 51.441 0 0 1 24.376 91.624h41.593a19.557 19.557 0 0 0 19.5-19.5v-88.364z" fill="#bfbfbf"/><path d="M150.115 268.146c-11 9.178-27.136 6.249-37.494-4.109a29.144 29.144 0 0 1 1.95-40.943 29.878 29.878 0 0 1 11.368-6.169 26.676 26.676 0 0 1 21.126 2.269s6.189 4.829 8.769 7.479c3.9 3.9 32.154 34.154 32.154 34.154 11.558 11.548 31.1 3.25 33.435-13.768a21.067 21.067 0 0 0-18.167-23.606s-8.829-1.549-14.618 4.23c-1 1-7.8 7.148-7.8 7.148a9.137 9.137 0 0 1-12.667-.649 8.738 8.738 0 0 1 .66-12.338c18.806-18.807 32.334-16 37.043-15.6 13.858 1.27 27.746 13 31.185 28 4 23.626-6.489 41.173-27 47.772a36.106 36.106 0 0 1-34.445-7.8c-1.339-1-25-26.6-31.524-33.684-2.65-3.24-4.71-7-9.879-7.269-.31 0-.62-.05-.93-.05a11.708 11.708 0 0 0-11.709 11.707 11.718 11.718 0 0 0 13.535 11.58 8.771 8.771 0 0 0 3.45-1 16.861 16.861 0 0 0 2.3-1.42c2.25-1.649 4-2.449 7.309-1.829a7.728 7.728 0 0 1 6.239 8.428 10.067 10.067 0 0 1-1.41 4.149 13.5 13.5 0 0 1-2.88 3.318z" fill="url(#a)"/></svg>