<svg xmlns="http://www.w3.org/2000/svg" version="1.1" xmlns:xlink="http://www.w3.org/1999/xlink" xmlns:svgjs="http://svgjs.dev/svgjs" width="2000" height="1500" viewBox="0 0 2000 1500"><rect width="2000" height="1500" fill="#0099db"></rect><g transform="matrix(0.75,0,0,0.75,249.08632142805777,133.2497975708502)"><svg viewBox="0 0 300 247" data-background-color="#0099db" preserveAspectRatio="xMidYMid meet" height="1646" width="2000" xmlns="http://www.w3.org/2000/svg" xmlns:xlink="http://www.w3.org/1999/xlink"><g id="tight-bounds" transform="matrix(1,0,0,1,0.18273571438845693,-0.09999999999999432)"><svg viewBox="0 0 299.6345285712231 247.2" height="247.2" width="299.6345285712231"><g><svg viewBox="0 0 397.4975999999999 327.9375283901677" height="247.2" width="299.6345285712231"><g><rect width="397.4975999999999" height="10.044293366387985" x="0" y="180.22004930162703" fill="#ffffff" opacity="1" stroke-width="0" stroke="transparent" fill-opacity="1" class="rect-qz-0" data-fill-palette-color="primary" rx="1%" id="qz-0" data-palette-color="#ffffff"></rect></g><g transform="matrix(1,0,0,1,0.9887999999999693,216.55830436013017)"><svg viewBox="0 0 395.52 111.37922403003753" height="111.37922403003753" width="395.52"><g id="textblocktransform"><svg viewBox="0 0 395.52 111.37922403003753" height="111.37922403003753" width="395.52" id="textblock"><g><svg viewBox="0 0 395.52 111.37922403003753" height="111.37922403003753" width="395.52"><g transform="matrix(1,0,0,1,0,0)"><svg width="395.52" viewBox="4.25 -35 159.79 45" height="111.37922403003753" data-palette-color="#ffffff"><g class="wordmark-text-0" data-fill-palette-color="primary" id="text-0"><path d="M8.25-27.1L8.25 0 4.25 0 4.25-35 8.65-35 21.65-5.5 34.6-35 38.95-35 38.95 0 34.95 0 34.95-27.1 23.05 0 20.2 0 8.25-27.1ZM56.25-4.8L64-25 67.9-25 53.6 10 50 10 54.25-0.35 44.15-25 48.25-25 56.25-4.8ZM85.75-4.25L97-35 101.25-35 87.95 0 83.35 0 70.25-35 74.5-35 85.75-4.25ZM104.84-31.5L104.84-35 131.09-35 131.09-31.5 119.99-31.5 119.99 0 115.99 0 115.99-31.5 104.84-31.5ZM137.24-12.95L137.24-35 141.24-35 141.24-12.9Q141.24-9.45 142.49-7.3 143.74-5.15 145.87-4.15 147.99-3.15 150.69-3.15L150.69-3.15Q153.34-3.15 155.44-4.15 157.54-5.15 158.79-7.3 160.04-9.45 160.04-12.9L160.04-12.9 160.04-35 164.04-35 164.04-12.95Q164.04-9.5 162.97-7 161.89-4.5 159.99-2.88 158.09-1.25 155.69-0.45 153.29 0.35 150.64 0.35L150.64 0.35Q147.04 0.35 143.99-1.07 140.94-2.5 139.09-5.45 137.24-8.4 137.24-12.95L137.24-12.95Z" fill="#ffffff" data-fill-palette-color="primary"></path></g></svg></g></svg></g></svg></g></svg></g><g transform="matrix(1,0,0,1,157.22455310999212,0)"><svg viewBox="0 0 83.04849378001569 153.92608760951188" height="153.92608760951188" width="83.04849378001569"><g><svg xmlns="http://www.w3.org/2000/svg" viewBox="26.799999999999997 7 46.39999999999999 86" x="0" y="0" height="153.92608760951188" width="83.04849378001569" class="icon-icon-0" data-fill-palette-color="accent" id="icon-0"><g fill="#ffffff" data-fill-palette-color="accent"><path d="M72.6 16.4C66.6 10.4 58.5 7 50 7s-16.6 3.4-22.6 9.4c-0.8 0.8-0.8 2 0 2.8 0.8 0.8 2 0.8 2.8 0C35.5 13.9 42.5 11 50 11s14.5 2.9 19.8 8.2c0.8 0.8 2 0.8 2.8 0 0.4-0.4 0.6-0.9 0.6-1.4s-0.2-1-0.6-1.4z" fill="#ffffff" data-fill-palette-color="accent"></path><path d="M49.8 17c-5.7 0-11.2 2.3-15.4 6.5-0.8 0.8-0.8 2 0 2.8 0.8 0.8 2 0.8 2.8 0 3.4-3.4 7.9-5.3 12.7-5.3 4.8 0 9.3 1.9 12.7 5.3 0.8 0.8 2 0.8 2.8 0 0.4-0.4 0.6-0.9 0.6-1.4s-0.2-1-0.6-1.4c-4.2-4.2-9.7-6.5-15.6-6.5zM44.3 33.4c3.1-3.1 8.2-3.1 11.3 0 0.8 0.8 2 0.8 2.8 0 0.4-0.4 0.6-0.9 0.6-1.4s-0.2-1-0.6-1.4c-4.7-4.7-12.3-4.7-17 0-0.7 0.7-0.7 2 0.1 2.8 0.8 0.8 2 0.8 2.8 0zM62.9 40.9H37.1c-1.7 0-3 1.3-3 3V90c0 1.7 1.3 3 3 3h25.7c1.7 0 3-1.3 3-3V43.9c0.1-1.7-1.3-3-2.9-3z m-1 48.1H38.1V44.9h23.7V89z" fill="#ffffff" data-fill-palette-color="accent"></path><circle cx="50" cy="83.7" r="2.0" fill="#ffffff" data-fill-palette-color="accent"></circle><path d="M47.7 52.4h4.6c1.1 0 2-0.9 2-2s-0.9-2-2-2h-4.6c-1.1 0-2 0.9-2 2s0.9 2 2 2z" fill="#ffffff" data-fill-palette-color="accent"></path></g></svg></g></svg></g><g></g></svg></g><defs></defs></svg><rect width="299.6345285712231" height="247.2" fill="none" stroke="none" visibility="hidden"></rect></g></svg></g></svg>